 <svg  version="1.0" xmlns="http://www.w3.org/2000/svg"  width="300.000000pt" height="300.000000pt" viewBox="0 0 300.000000 300.000000"  preserveAspectRatio="xMidYMid meet">  <g transform="translate(0.000000,300.000000) scale(0.100000,-0.100000)" fill="#8b5fce" stroke="none"> <path d="M1485 2975 c-14 -16 -41 -80 -67 -160 l-43 -134 -150 -1 c-168 0 -195 -8 -195 -59 0 -33 21 -54 153 -150 76 -55 97 -76 92 -89 -22 -58 -75 -254 -75 -278 0 -37 16 -54 50 -54 28 0 30 1 173 103 l98 70 47 -34 c200 -143 248 -164 273 -117 14 26 2 84 -46 227 l-33 99 97 70 c121 89 164 132 159 163 -5 40 -41 49 -200 49 l-146 0 -22 73 c-70 231 -108 282 -165 222z m73 -77 c11 -29 31 -90 46 -135 39 -119 46 -123 210 -123 72 0 137 -4 144 -8 22 -15 3 -38 -86 -105 -103 -77 -142 -114 -142 -136 0 -9 16 -65 35 -126 39 -123 44 -165 19 -165 -16 0 -28 8 -167 103 -42 29 -79 47 -96 47 -19 0 -60 -22 -120 -65 -105 -74 -124 -85 -145 -85 -22 0 -21 12 19 149 19 66 35 131 35 145 0 26 -27 52 -155 149 -45 34 -70 60 -70 72 0 19 9 20 141 23 135 2 143 4 166 27 15 15 36 61 53 112 35 112 64 173 80 173 8 0 22 -24 33 -52z"/> <path d="M1033 2391 c-486 -201 -792 -675 -770 -1195 13 -328 130 -598 357 -827 216 -217 523 -360 775 -359 81 1 56 13 -76 40 -194 39 -338 96 -484 191 -96 62 -275 238 -334 329 -301 462 -262 1049 96 1462 100 115 245 227 377 289 93 44 96 43 79 -43 -8 -45 -19 -77 -29 -83 -244 -152 -377 -286 -473 -479 -87 -176 -116 -311 -108 -515 5 -155 33 -280 79 -363 38 -67 49 -62 162 57 169 180 216 254 237 371 15 89 14 88 57 59 76 -50 148 -69 262 -69 126 -1 184 21 222 82 50 81 14 265 -96 484 -35 70 -61 130 -58 133 11 10 71 5 144 -14 122 -31 218 -77 269 -127 43 -42 54 -47 165 -75 65 -17 130 -37 143 -46 21 -14 23 -20 18 -68 -6 -59 -42 -137 -87 -188 -39 -45 -124 -89 -246 -126 -135 -41 -155 -64 -168 -191 -10 -88 -14 -100 -36 -100 -22 0 -41 32 -60 103 -22 82 -98 119 -168 83 -70 -36 -115 -119 -138 -248 -13 -78 -16 -82 -79 -150 -132 -143 -215 -387 -152 -446 48 -45 91 -19 106 65 24 122 76 218 168 307 l66 64 13 93 c13 95 38 169 59 169 6 0 21 -24 34 -54 34 -82 77 -121 150 -135 130 -26 175 -59 226 -166 19 -38 52 -92 75 -119 22 -26 40 -53 40 -58 0 -18 -58 -94 -81 -105 -13 -7 -51 -19 -84 -28 -158 -44 -235 -93 -235 -150 0 -57 25 -69 137 -62 232 13 479 126 652 297 337 334 417 825 203 1245 -77 153 -215 306 -362 403 -47 31 -88 60 -91 65 -7 10 -21 139 -15 144 11 11 171 -78 261 -146 128 -97 266 -265 342 -416 76 -150 123 -355 123 -534 0 -371 -161 -706 -450 -936 -175 -139 -304 -195 -615 -267 l-100 -23 60 -3 c239 -14 604 157 810 380 212 230 320 487 332 799 18 457 -204 874 -592 1110 -70 43 -236 121 -243 114 -2 -1 6 -33 17 -70 12 -37 21 -93 21 -124 l0 -56 62 -35 c416 -236 611 -721 476 -1185 -75 -260 -285 -505 -533 -625 -116 -55 -262 -93 -402 -103 -59 -5 -63 -4 -63 16 0 12 4 27 8 33 12 19 82 50 177 79 140 43 148 48 194 115 22 34 41 66 41 70 0 4 -23 36 -51 71 -29 35 -66 96 -84 134 -50 107 -100 145 -228 171 -40 9 -80 23 -90 32 -26 23 -63 99 -71 145 -6 33 -10 37 -36 37 -53 0 -100 -97 -115 -238 -7 -63 -8 -65 -80 -135 -97 -96 -145 -196 -170 -350 l-6 -37 -24 17 c-27 20 -27 23 1 138 23 96 72 183 150 265 69 71 72 78 79 135 20 162 83 265 162 265 49 0 66 -18 82 -84 23 -95 44 -118 112 -129 l36 -5 15 125 c12 96 19 129 34 143 10 10 61 29 112 44 118 33 197 73 251 128 75 74 127 215 107 292 -9 35 -40 49 -181 82 -114 26 -122 30 -160 71 -73 78 -284 153 -431 153 -46 0 -84 -3 -84 -6 0 -4 16 -32 35 -64 98 -162 169 -350 181 -480 6 -58 4 -68 -17 -94 -29 -37 -69 -53 -154 -61 -124 -12 -244 29 -340 114 l-40 36 -6 -103 c-10 -157 -51 -231 -235 -422 -35 -36 -67 -76 -72 -90 -9 -25 -10 -24 -26 15 -10 22 -29 78 -44 125 -24 79 -26 99 -26 270 0 173 2 191 27 273 87 281 259 494 508 631 l66 36 1 47 c0 27 10 79 22 116 12 38 20 72 18 77 -2 5 -45 -8 -95 -29z"/> <path d="M1099 1937 c-110 -75 -155 -155 -185 -330 l-16 -92 59 -52 c85 -77 148 -105 255 -111 68 -4 98 -1 133 12 45 18 45 18 45 65 0 88 -37 200 -120 368 -45 89 -87 167 -95 173 -10 8 -28 0 -76 -33z m100 -85 c83 -142 143 -305 145 -391 1 -54 1 -54 -34 -64 -99 -26 -234 11 -320 90 -34 30 -40 41 -40 76 0 55 27 162 55 217 28 55 117 140 147 140 4 0 25 -31 47 -68z"/> </g> </svg> 